<svg width="512" height="512" viewBox="0 0 512 512" fill="none" xmlns="http://www.w3.org/2000/svg">
  <defs>
    <mask id="ring-mask" maskUnits="userSpaceOnUse" x="0" y="0" width="512" height="512">
      <rect width="512" height="512" fill="black" />
      <path
        fill-rule="evenodd"
        clip-rule="evenodd"
        d="M160 60H352Q365 60 372 72L468 240Q476 256 468 272L372 440Q365 452 352 452H160Q147 452 140 440L44 272Q36 256 44 240L140 72Q147 60 160 60ZM244 119Q256 112 268 119L369 177Q381 184 381 198V314Q381 328 369 335L268 393Q256 400 244 393L143 335Q131 328 131 314V198Q131 184 143 177L244 119Z"
        fill="white"
      />
      <g fill="none" stroke="black" stroke-linecap="round" stroke-linejoin="round">
        <path d="M170 184C146 184 132 198 132 226V238C132 250 124 256 112 256C124 256 132 262 132 274V286C132 314 146 328 170 328" stroke-width="24" />
        <path d="M342 184C366 184 380 198 380 226V238C380 250 388 256 400 256C388 256 380 262 380 274V286C380 314 366 328 342 328" stroke-width="24" />
        <ellipse cx="256" cy="256" rx="106" ry="42" stroke-width="22" />
        <ellipse cx="256" cy="256" rx="106" ry="42" transform="rotate(60 256 256)" stroke-width="22" />
        <ellipse cx="256" cy="256" rx="106" ry="42" transform="rotate(120 256 256)" stroke-width="22" />
        <circle cx="256" cy="256" r="22" stroke-width="18" />
      </g>
    </mask>
  </defs>
  <path
    fill-rule="evenodd"
    clip-rule="evenodd"
    d="M160 60H352Q365 60 372 72L468 240Q476 256 468 272L372 440Q365 452 352 452H160Q147 452 140 440L44 272Q36 256 44 240L140 72Q147 60 160 60ZM244 119Q256 112 268 119L369 177Q381 184 381 198V314Q381 328 369 335L268 393Q256 400 244 393L143 335Q131 328 131 314V198Q131 184 143 177L244 119Z"
    fill="#4F36C8"
    mask="url(#ring-mask)"
  />
  <g stroke="#9A97FF" stroke-width="13" stroke-linecap="round" stroke-linejoin="round" fill="none">
    <path d="M170 184C146 184 132 198 132 226V238C132 250 124 256 112 256C124 256 132 262 132 274V286C132 314 146 328 170 328" />
    <path d="M342 184C366 184 380 198 380 226V238C380 250 388 256 400 256C388 256 380 262 380 274V286C380 314 366 328 342 328" />
  </g>
  <g stroke="#61DAFB" stroke-width="10" stroke-linecap="round" fill="none">
    <ellipse cx="256" cy="256" rx="106" ry="42" />
    <ellipse cx="256" cy="256" rx="106" ry="42" transform="rotate(60 256 256)" />
    <ellipse cx="256" cy="256" rx="106" ry="42" transform="rotate(120 256 256)" />
  </g>
  <circle cx="256" cy="256" r="18" fill="#61DAFB" />
</svg>
